<svg xmlns="http://www.w3.org/2000/svg" xmlns:xlink="http://www.w3.org/1999/xlink" viewBox="0 0 592.57 103.3"><defs><style>.cls-1{isolation:isolate;}.cls-2,.cls-6{fill-rule:evenodd;}.cls-2{fill:url(#Безымянный_градиент_3);}.cls-3{fill:url(#Безымянный_градиент_3-2);}.cls-4{opacity:0.39;fill:url(#radial-gradient);}.cls-4,.cls-5,.cls-7{mix-blend-mode:overlay;}.cls-5,.cls-7{opacity:0.24;}.cls-5{fill:url(#Безымянный_градиент_15);}.cls-6{fill:url(#Безымянный_градиент_3-3);}.cls-7{fill:url(#radial-gradient-2);}</style><linearGradient id="Безымянный_градиент_3" x1="113.02" y1="17.34" x2="232.52" y2="86.33" gradientUnits="userSpaceOnUse"><stop offset="0" stop-color="#f39322"/><stop offset="1" stop-color="#ea5b2b"/></linearGradient><linearGradient id="Безымянный_градиент_3-2" x1="-9.58" y1="17.28" x2="125.08" y2="95.02" xlink:href="#Безымянный_градиент_3"/><radialGradient id="radial-gradient" cx="528.02" cy="50.17" r="35.53" gradientTransform="translate(-5653.29 -30.93) scale(10.9 1.62)" gradientUnits="userSpaceOnUse"><stop offset="0" stop-color="#f2f3f3"/><stop offset="1" stop-color="#fff" stop-opacity="0"/></radialGradient><radialGradient id="Безымянный_градиент_15" cx="533.84" cy="43.88" r="19.59" gradientTransform="translate(-5653.29 -43.31) scale(10.9 1.99)" gradientUnits="userSpaceOnUse"><stop offset="0" stop-color="#f2f3f3"/><stop offset="1" stop-color="#fff" stop-opacity="0"/></radialGradient><linearGradient id="Безымянный_градиент_3-3" x1="229.11" y1="17.09" x2="349.45" y2="86.56" xlink:href="#Безымянный_градиент_3"/><radialGradient id="radial-gradient-2" cx="545.12" cy="22.43" r="12.01" gradientTransform="translate(-5653.29 -20.45) scale(10.9 1.91)" xlink:href="#radial-gradient"/></defs><title>Ресурс 1</title><g class="cls-1"><g id="Слой_2" data-name="Слой 2"><g id="Слой_1-2" data-name="Слой 1"><polygon class="cls-2" points="175.54 22.5 151.29 0.69 122.63 0.69 122.63 102.95 222.92 102.95 222.92 0.72 185.93 0.69 175.54 22.5"/><polygon points="592.57 68.23 592.57 102.68 585.26 102.68 585.26 88.47 570.57 88.47 570.57 102.68 563.22 102.68 563.22 68.23 570.57 68.23 570.57 82.13 585.26 82.13 585.26 68.23 592.57 68.23"/><path d="M592.57,38.72V57.2h-3.74V46.69a29.11,29.11,0,0,1,.13-2.95h0a15.18,15.18,0,0,1-.93,1.49l-7.83,12h-4V38.72h3.69V49.28a17.08,17.08,0,0,1-.09,2.55h0l8.49-13.11Z"/><path d="M592.57,6V27.77h-4.36V15.4c0-1.28,0-2.46.13-3.48h-.08a20.2,20.2,0,0,1-1.06,1.76L578,27.77h-4.75V6h4.4V18.39a22.19,22.19,0,0,1-.13,3h0l10-15.4Z"/><path d="M586.28,33.57h2.24a4.18,4.18,0,0,1-1.36,2.86,4.76,4.76,0,0,1-5.94,0A3.93,3.93,0,0,1,580,33.57h2.2a2.07,2.07,0,0,0,4.1,0Z"/><path d="M585.18,0h2.59a4.86,4.86,0,0,1-1.54,3.3,4.92,4.92,0,0,1-3.47,1.23,5,5,0,0,1-3.52-1.23A4.46,4.46,0,0,1,577.78,0h2.6a2.14,2.14,0,0,0,2.42,2.07A2.15,2.15,0,0,0,585.18,0Z"/><rect x="567.93" y="38.72" width="3.92" height="18.48"/><rect x="563.61" y="6.03" width="4.58" height="21.74"/><path d="M566.08,51.17a5.53,5.53,0,0,1-1.81,4.49,7.46,7.46,0,0,1-5,1.54h-6.55V38.72h4v7h2.81C563.88,45.76,566.08,47.57,566.08,51.17Zm-4.14.27c0-1.81-1.05-2.69-3.17-2.69h-2.06v5.42h2C560.89,54.17,561.94,53.29,561.94,51.44Z"/><path d="M561.46,20.64a6.66,6.66,0,0,1-2.11,5.28,8.67,8.67,0,0,1-5.86,1.85h-7.7V6h4.62v8.23h3.3C558.86,14.26,561.46,16.41,561.46,20.64Zm-4.89.3c0-2.06-1.23-3.12-3.69-3.12h-2.47V24.2h2.38C555.34,24.2,556.57,23.1,556.57,20.94Z"/><path d="M555.17,68.23v34.45h-7V83.1a54.35,54.35,0,0,1,.22-5.5h-.13a32.06,32.06,0,0,1-1.67,2.82L532,102.68h-7.48V68.23h7V87.9a33.26,33.26,0,0,1-.22,4.75h.09L547.2,68.23Z"/><polygon points="548.43 38.72 548.43 57.2 544.47 57.2 544.47 49.59 536.6 49.59 536.6 57.2 532.64 57.2 532.64 38.72 536.6 38.72 536.6 46.2 544.47 46.2 544.47 38.72 548.43 38.72"/><polygon points="540.69 6.03 540.69 27.77 536.07 27.77 536.07 18.79 526.78 18.79 526.78 27.77 522.16 27.77 522.16 6.03 526.78 6.03 526.78 14.79 536.07 14.79 536.07 6.03 540.69 6.03"/><path d="M529.69,51.17a5.7,5.7,0,0,1-1.8,4.45,7.31,7.31,0,0,1-5,1.58h-6.6V38.72h4v7h2.82Q529.69,45.76,529.69,51.17Zm-4.14.27c0-1.81-1.1-2.69-3.21-2.69h-2.07v5.42h2C524.45,54.17,525.55,53.29,525.55,51.44Z"/><path d="M518.69,20.64a6.68,6.68,0,0,1-2.11,5.23,8.49,8.49,0,0,1-5.86,1.9H503V6h4.62v8.23h3.3C516.09,14.26,518.69,16.41,518.69,20.64Zm-4.89.3c0-2.06-1.23-3.12-3.74-3.12h-2.42V24.2H510C512.53,24.2,513.8,23.1,513.8,20.94Z"/><path d="M516.4,87.46a7.48,7.48,0,0,1,2.16,5.41,9.11,9.11,0,0,1-3.66,7.74c-2.37,1.81-5.8,2.69-10.16,2.69s-7.52-.62-9.77-1.89V94.89a16.14,16.14,0,0,0,9.29,2.78c4.44,0,6.68-1.63,6.68-4.93s-2.46-4.93-7.34-4.93h-4.32V82.26h4.1c4.35,0,6.55-1.58,6.55-4.66,0-2.86-1.85-4.31-5.54-4.31a16.59,16.59,0,0,0-8.27,2.51V69.68a22.14,22.14,0,0,1,9.63-2,14.41,14.41,0,0,1,8.45,2.28,7.31,7.31,0,0,1,3.3,6.38c0,4.45-2.24,7.22-6.78,8.36v.09A9.53,9.53,0,0,1,516.4,87.46Z"/><path d="M512,38.72V57.2h-3.92V42h-3.87c-1,6.87-1.85,11.18-2.68,12.89a4.16,4.16,0,0,1-4,2.56,6,6,0,0,1-2.2-.36V54a4.53,4.53,0,0,0,1.32.26,1.35,1.35,0,0,0,.8-.22,3.12,3.12,0,0,0,.74-1,16.86,16.86,0,0,0,.93-3c.35-1.54.7-3.35,1-5.42l.88-5.85Z"/><path d="M497.92,6V27.77H493.3V9.9h-4.53C487.62,18,486.57,23,485.6,25a4.85,4.85,0,0,1-4.67,3,7.09,7.09,0,0,1-2.59-.44V23.89a4.52,4.52,0,0,0,1.54.36,1.54,1.54,0,0,0,.92-.31,2.57,2.57,0,0,0,.84-1.15,17.49,17.49,0,0,0,1.14-3.56c.4-1.76.79-3.87,1.19-6.34L485,6Z"/><path d="M488.2,38.72l6.64,18.48h-4.31L489.16,53h-6.73l-1.36,4.22H476.8l6.77-18.48Zm0,11.22-2.11-6.42a9.48,9.48,0,0,1-.31-1.63h-.09a5.91,5.91,0,0,1-.31,1.58l-2.11,6.47Z"/><path d="M480.41,68.23l12.36,34.45h-8l-2.59-7.87h-12.5l-2.55,7.87h-8l12.63-34.45Zm0,20.9-3.92-12a11.74,11.74,0,0,1-.52-3h-.22a10.79,10.79,0,0,1-.62,2.9l-3.92,12.06Z"/><path d="M470,6l7.79,21.74h-5.06l-1.63-5H463.2l-1.63,5h-5l8-21.74Zm0,13.15-2.47-7.52a9,9,0,0,1-.35-1.89h-.09a13.87,13.87,0,0,1-.39,1.85l-2.51,7.56Z"/><path d="M475.52,52.93v3.61a12.11,12.11,0,0,1-5.28,1,8.89,8.89,0,0,1-6.64-2.5,9.23,9.23,0,0,1-2.47-6.69,9.72,9.72,0,0,1,2.78-7.17A9.47,9.47,0,0,1,471,38.41a12.28,12.28,0,0,1,4.53.71V42.9a8.69,8.69,0,0,0-4.27-1.1,5.65,5.65,0,0,0-4.31,1.76,6.24,6.24,0,0,0-1.63,4.53,6,6,0,0,0,1.54,4.36A5.31,5.31,0,0,0,471,54.12,8.69,8.69,0,0,0,475.52,52.93Z"/><path d="M459.51,44.57a5.58,5.58,0,0,1-2.07,4.54,7.78,7.78,0,0,1-5.24,1.67h-2V57.2h-4V38.72h6.38C457.22,38.72,459.51,40.66,459.51,44.57Zm-4.14.14c0-1.94-1.14-3-3.43-3h-1.76v6h1.71C454.18,47.74,455.37,46.73,455.37,44.71Z"/><polygon points="458.14 68.23 458.14 74.34 445.2 74.34 445.2 102.68 437.86 102.68 437.86 68.23 458.14 68.23"/><path d="M455.59,12.89a6.59,6.59,0,0,1-2.42,5.37A9,9,0,0,1,447,20.15h-2.38v7.62H440V6h7.48C452.91,6,455.59,8.32,455.59,12.89Zm-4.84.18c0-2.29-1.36-3.48-4.05-3.48h-2.07v7h2Q450.76,16.63,450.75,13.07Z"/><polygon points="443.18 53.99 443.18 57.2 432.23 57.2 432.23 38.72 442.79 38.72 442.79 41.93 436.19 41.93 436.19 46.29 442.3 46.29 442.3 49.5 436.19 49.5 436.19 53.99 443.18 53.99"/><polygon points="437.02 6.03 437.02 9.81 430.82 9.81 430.82 27.77 426.2 27.77 426.2 9.81 419.99 9.81 419.99 6.03 437.02 6.03"/><path d="M421.14,68.23l12.36,34.45h-8l-2.55-7.87H410.4l-2.55,7.87h-8l12.63-34.45Zm0,20.9-3.92-12a11.74,11.74,0,0,1-.52-3h-.18a12.57,12.57,0,0,1-.62,2.9l-4,12.06Z"/><path d="M427.91,48.71a4,4,0,0,1,1.23,3,5,5,0,0,1-1.8,4,7.56,7.56,0,0,1-4.93,1.45H415.5V38.72h6.6a8,8,0,0,1,4.62,1.15A3.62,3.62,0,0,1,428.4,43a3.86,3.86,0,0,1-1,2.64,5.62,5.62,0,0,1-2.59,1.59v0A4.91,4.91,0,0,1,427.91,48.71Zm-3.78,4.88a2.34,2.34,0,0,0,.83-1.93,2.11,2.11,0,0,0-.83-1.81,3.65,3.65,0,0,0-2.38-.66h-2.29V54.3h2.34A3.68,3.68,0,0,0,424.13,53.59Zm-.66-8a2.16,2.16,0,0,0,.75-1.81c0-1.41-1-2.11-3.08-2.11h-1.68v4.58h1.85A3.24,3.24,0,0,0,423.47,45.59Z"/><polygon points="416.96 6.03 416.96 27.77 412.29 27.77 412.29 18.79 403.05 18.79 403.05 27.77 398.43 27.77 398.43 6.03 403.05 6.03 403.05 14.79 412.29 14.79 412.29 6.03 416.96 6.03"/><path d="M411.19,38.72V57.2h-3.74V46.69c0-1.1.05-2.07.13-2.95h-.08c-.14.26-.44.79-.88,1.49l-7.84,12h-4V38.72h3.74V49.28c0,1.28,0,2.11-.08,2.55h0l8.49-13.11Z"/><path d="M395.57,68.23v34.45h-7.26V81.78q0-2.91.26-7.26h-.17a34.48,34.48,0,0,1-1.06,4.4l-8.49,23.76H373l-8.63-23.54c-.17-.53-.57-2.11-1.1-4.62h-.17c.17,2.86.26,5.76.26,8.67v19.49h-6.6V68.23h10.69L374.85,89a23,23,0,0,1,1.27,4.89h.18A47.76,47.76,0,0,1,377.71,89l7.48-20.77Z"/><polygon points="394.87 23.98 394.87 27.77 381.97 27.77 381.97 6.03 394.34 6.03 394.34 9.81 386.59 9.81 386.59 14.92 393.81 14.92 393.81 18.7 386.59 18.7 386.59 23.98 394.87 23.98"/><polygon points="390.42 38.72 390.42 57.2 386.46 57.2 386.46 49.59 378.59 49.59 378.59 57.2 374.63 57.2 374.63 38.72 378.59 38.72 378.59 46.2 386.46 46.2 386.46 38.72 390.42 38.72"/><polygon points="378.37 23.76 378.37 33.66 374.27 33.66 374.27 27.77 356.76 27.77 356.76 6.03 361.38 6.03 361.38 23.76 370.62 23.76 370.62 6.03 375.29 6.03 375.29 23.76 378.37 23.76"/><path d="M372.6,38.72l-5.76,12.72c-1.19,2.59-2.29,4.27-3.3,5a5.93,5.93,0,0,1-3.35,1.1,5.66,5.66,0,0,1-2.42-.44v-3.6a4.17,4.17,0,0,0,2.2.66c1.06,0,2-.88,2.86-2.64l-6.07-12.81h4.49l3.21,7.7a6.15,6.15,0,0,1,.44,1.45,6.71,6.71,0,0,1,.49-1.4l3.08-7.75Z"/><polygon class="cls-3" points="100.84 67.41 100.51 0.69 0 0.69 0 102.95 120.5 102.95 100.84 67.41"/><path class="cls-4" d="M0,102.32H49.57c0-15.1,19.16-28,51.18-38.95l-.23-61.11L0,2.43Z"/><path class="cls-5" d="M122.63,56.7c27.83-7.63,62.14-14.22,100.29-19.92V2l-100.29.18Z"/><polygon class="cls-6" points="310.47 0.69 289.65 22.3 267.33 0.72 238.56 0.72 238.56 102.95 339.98 102.95 339.98 0.69 310.47 0.69"/><path class="cls-7" d="M238.57,34.52c32-4.46,66.24-8.33,101.41-11.7v-21l-30.67,0L289.65,22.3,268.49,2,238.57,2Z"/></g></g></g></svg>