<svg xmlns="http://www.w3.org/2000/svg" width="22" height="22" viewBox="0 0 22 22">
  <metadata><?xpacket begin="﻿" id="W5M0MpCehiHzreSzNTczkc9d"?>
<x:xmpmeta xmlns:x="adobe:ns:meta/" x:xmptk="Adobe XMP Core 5.6-c140 79.160451, 2017/05/06-01:08:21        ">
   <rdf:RDF xmlns:rdf="http://www.w3.org/1999/02/22-rdf-syntax-ns#">
      <rdf:Description rdf:about=""/>
   </rdf:RDF>
</x:xmpmeta>
                                                                                                    
                                                                                                    
                                                                                                    
                                                                                                    
                                                                                                    
                                                                                                    
                                                                                                    
                                                                                                    
                                                                                                    
                                                                                                    
                                                                                                    
                                                                                                    
                                                                                                    
                                                                                                    
                                                                                                    
                                                                                                    
                                                                                                    
                                                                                                    
                                                                                                    
                                                                                                    
                           
<?xpacket end="w"?></metadata>
<defs>
    <style>
      .cls-1 {
        fill: #fff;
        fill-rule: evenodd;
      }
    </style>
  </defs>
  <path id="Forma_1" data-name="Forma 1" class="cls-1" d="M1318.5,4951.41l-3.39-3.41a1.779,1.779,0,0,0-2.5.05l-1.71,1.71c-0.11-.06-0.22-0.12-0.34-0.18a16.216,16.216,0,0,1-7.1-7.12q-0.09-.18-0.18-0.33l1.15-1.15,0.56-.57a1.791,1.791,0,0,0,.05-2.51l-3.4-3.4a1.769,1.769,0,0,0-2.5.04l-0.95.97,0.02,0.03a5.57,5.57,0,0,0-.79,1.39,5.89,5.89,0,0,0-.35,1.42c-0.45,3.72,1.25,7.13,5.86,11.76,6.38,6.39,11.51,5.9,11.74,5.88a5.52,5.52,0,0,0,1.41-.36,5.247,5.247,0,0,0,1.39-.78l0.02,0.02,0.97-.96A1.769,1.769,0,0,0,1318.5,4951.41Z" transform="translate(-1297 -4934)"/>
</svg>
