<svg xmlns="http://www.w3.org/2000/svg" xmlns:xlink="http://www.w3.org/1999/xlink" viewBox="0 0 111.26 90.54"><defs><style>.cls-1{fill:none;}.cls-2{isolation:isolate;}.cls-3{clip-path:url(#clip-path);}.cls-4{fill:url(#Безымянный_градиент_21);}.cls-5{opacity:0.5;mix-blend-mode:overlay;fill:url(#radial-gradient);}.cls-6{fill:url(#Безымянный_градиент_21-2);}.cls-7{fill:url(#Безымянный_градиент_10);}.cls-8{fill:#fff;}</style><clipPath id="clip-path"><rect class="cls-1" y="9.62" width="103.07" height="39.68"/></clipPath><linearGradient id="Безымянный_градиент_21" x1="4.43" y1="-4.21" x2="100.2" y2="96.39" gradientUnits="userSpaceOnUse"><stop offset="0" stop-color="#f79420"/><stop offset="1" stop-color="#f05a2b"/></linearGradient><radialGradient id="radial-gradient" cx="1558.69" cy="-3253.94" r="37.15" gradientTransform="matrix(0.01, 0.57, 2.01, -0.01, 6564.17, -905.51)" gradientUnits="userSpaceOnUse"><stop offset="0" stop-color="#f2f2f2"/><stop offset="1" stop-color="#fff" stop-opacity="0"/></radialGradient><linearGradient id="Безымянный_градиент_21-2" x1="103.07" y1="42.98" x2="108.69" y2="42.98" xlink:href="#Безымянный_градиент_21"/><linearGradient id="Безымянный_градиент_10" x1="1226.8" y1="44.95" x2="1244.67" y2="44.95" gradientTransform="matrix(-1.25, 0, 0, 1, 1654.39, 0)" gradientUnits="userSpaceOnUse"><stop offset="0.49" stop-color="#f05a28"/><stop offset="1" stop-color="#be1e2d"/></linearGradient></defs><title>Ресурс 1</title><g class="cls-2"><g id="Слой_2" data-name="Слой 2"><g id="Слой_1-2" data-name="Слой 1"><g class="cls-3"><rect class="cls-4" width="103.07" height="90.54"/><path class="cls-5" d="M0,0H103.07V14.78C9.49,14.78,0,46.26,0,46.26Z"/></g><polygon class="cls-6" points="108.69 36.66 103.07 36.66 103.07 49.3 108.69 36.66"/><polygon class="cls-7" points="105.88 42.98 108.69 36.66 111.26 53.25 105.88 42.98"/><path class="cls-8" d="M17.73,26.64H14.06v8.08H12V24.9h5.76Z"/><path class="cls-8" d="M25.81,34.72H23.53l-.73-2.25H19.23l-.72,2.25H16.24l3.59-9.82h2.46ZM22.3,30.85l-1.11-3.4a3.89,3.89,0,0,1-.16-.86H21a4.36,4.36,0,0,1-.17.83l-1.12,3.43Z"/><path class="cls-8" d="M33.06,34.36a6.33,6.33,0,0,1-2.79.53,4.69,4.69,0,0,1-3.52-1.33A4.81,4.81,0,0,1,25.45,30a5.17,5.17,0,0,1,1.45-3.8,5,5,0,0,1,3.76-1.48,6.69,6.69,0,0,1,2.4.37v2a4.34,4.34,0,0,0-2.25-.58,3,3,0,0,0-2.3.92,3.73,3.73,0,0,0-.05,4.73,2.91,2.91,0,0,0,2.21.88,4.65,4.65,0,0,0,2.39-.64Z"/><path class="cls-8" d="M41.57,26.61h-2.8v8.11H36.68V26.61h-2.8V24.9h7.69Z"/><path class="cls-8" d="M44.41,31.3v3.42H42.32V24.9H45.7q3.66,0,3.66,3.11a3,3,0,0,1-1.1,2.41,4.08,4.08,0,0,1-2.77.88Zm0-4.78v3.17h.91c1.23,0,1.84-.53,1.84-1.6s-.61-1.57-1.82-1.57Z"/><path class="cls-8" d="M49.84,29.94a5.3,5.3,0,0,1,1.34-3.75,4.63,4.63,0,0,1,3.56-1.45,4.37,4.37,0,0,1,3.39,1.4,5.09,5.09,0,0,1,1.28,3.6,5.22,5.22,0,0,1-1.33,3.72,4.57,4.57,0,0,1-3.5,1.43,4.48,4.48,0,0,1-3.42-1.39A4.94,4.94,0,0,1,49.84,29.94Zm2.2-.11a3.78,3.78,0,0,0,.69,2.34,2.47,2.47,0,0,0,3.8,0,3.71,3.71,0,0,0,.69-2.35,3.91,3.91,0,0,0-.67-2.42,2.19,2.19,0,0,0-1.87-.89,2.31,2.31,0,0,0-1.94.91A3.77,3.77,0,0,0,52,29.83Z"/><path class="cls-8" d="M68.44,34.72H66.35v-4H62.17v4H60.08V24.9h2.09v4h4.18v-4h2.09Z"/><path class="cls-8" d="M69.13,29.94a5.26,5.26,0,0,1,1.35-3.75A4.59,4.59,0,0,1,74,24.74a4.34,4.34,0,0,1,3.39,1.4,5.09,5.09,0,0,1,1.28,3.6,5.22,5.22,0,0,1-1.33,3.72,4.57,4.57,0,0,1-3.5,1.43,4.48,4.48,0,0,1-3.42-1.39A4.94,4.94,0,0,1,69.13,29.94Zm2.2-.11A3.78,3.78,0,0,0,72,32.17a2.26,2.26,0,0,0,1.89.91,2.31,2.31,0,0,0,1.92-.87,3.77,3.77,0,0,0,.68-2.35,4,4,0,0,0-.66-2.42A2.23,2.23,0,0,0,74,26.55a2.33,2.33,0,0,0-1.94.91A3.77,3.77,0,0,0,71.33,29.83Z"/><path class="cls-8" d="M88.36,34.72v-6c0-.55,0-1.24.08-2.07h0A10.21,10.21,0,0,1,88.08,28l-2.42,6.77H84L81.54,28c-.06-.16-.16-.6-.31-1.32h0c0,.82.08,1.65.08,2.48v5.55H79.37V24.9h3l2.12,5.93a6.72,6.72,0,0,1,.36,1.38h0c.14-.53.27-1,.41-1.39l2.12-5.92h3v9.82Z"/></g></g></g></svg>