<svg xmlns="http://www.w3.org/2000/svg" style="display:none"><defs><style>.cls-1{fill-rule:evenodd}</style><style>.cls-1{fill:#2847bc;fill-rule:evenodd}</style><style>.cls-1{fill-rule:evenodd}</style><style>.cls-1{fill:#fff;fill-rule:evenodd}</style><style>.cls-1{fill:#fff;fill-rule:evenodd}</style><style>.cls-1{fill:#fff;fill-rule:evenodd}</style><style>.cls-1{fill:#fff;fill-rule:evenodd}</style><style>.cls-1{fill:#f37526;fill-rule:evenodd}</style></defs><symbol id="icon-arrow-bottom" viewBox="0 0 14.938 8"><path id="Forma_1" data-name="Forma 1" class="cls-1" d="M506.742 1031.71l-6.436-6.04a.939.939 0 0 1 0-1.39 1.106 1.106 0 0 1 1.482 0l5.695 5.35 5.695-5.35a1.107 1.107 0 0 1 1.483 0 .941.941 0 0 1 0 1.39l-6.437 6.04a1.092 1.092 0 0 1-1.482 0z" transform="translate(-500.031 -1024)"/></symbol><symbol id="icon-arrow-left" viewBox="0 0 8 15"><path id="Forma_1" data-name="Forma 1" class="cls-1" d="M429.288 416.228l6.038 6.46a.938.938 0 0 0 1.39 0 1.1 1.1 0 0 0 0-1.487l-5.342-5.716 5.342-5.716a1.1 1.1 0 0 0 0-1.488.938.938 0 0 0-1.39 0l-6.038 6.46a1.1 1.1 0 0 0 0 1.487z" transform="translate(-429 -408)"/></symbol><symbol id="icon-arrow-right" viewBox="0 0 8 15"><path id="Forma_1" data-name="Forma 1" class="cls-1" d="M1499.71 416.228l-6.04 6.46a.938.938 0 0 1-1.39 0 1.112 1.112 0 0 1 0-1.487l5.35-5.716-5.35-5.716a1.114 1.114 0 0 1 0-1.488.938.938 0 0 1 1.39 0l6.04 6.46a1.1 1.1 0 0 1 0 1.487z" transform="translate(-1492 -408)"/></symbol><symbol id="icon-email" viewBox="0 0 23 17"><path id="Forma_1" data-name="Forma 1" class="cls-1" d="M1542.65 4947.32l-8.13 7.22a1.629 1.629 0 0 0 1.13.46h19.7a1.667 1.667 0 0 0 1.13-.46l-8.13-7.22-2.85 2.58zm12.7-9.32h-19.7a1.667 1.667 0 0 0-1.13.46l10.98 9.74 10.98-9.74a1.6 1.6 0 0 0-1.13-.46zm-21.35 15.62l7.94-6.99-7.94-7.14v14.13zm23 0v-14.13l-7.94 7.14z" transform="translate(-1534 -4938)"/></symbol><symbol id="icon-map" viewBox="0 0 18 25"><path class="cls-1" d="M9 0a9.037 9.037 0 0 0-9 9.05c0 6.2 8.05 15.29 8.4 15.68a.8.8 0 0 0 1.2 0c.35-.39 8.4-9.48 8.4-15.68A9.037 9.037 0 0 0 9 0zm0 13.61a4.555 4.555 0 1 1 4.53-4.56A4.545 4.545 0 0 1 9 13.61z"/></symbol><symbol id="icon-more" viewBox="0 0 45 45"><path id="Forma_1" data-name="Forma 1" class="cls-1" d="M836.424 439.781l-10.812-10.813a18.937 18.937 0 1 0-2.653 2.653l10.813 10.8a1.872 1.872 0 0 0 2.652-2.64zm-25.47-7.646a15.186 15.186 0 1 1 15.19-15.181 15.2 15.2 0 0 1-15.19 15.181z" transform="translate(-792 -398)"/></symbol><symbol id="icon-phone" viewBox="0 0 22 22"><path id="Forma_1" data-name="Forma 1" class="cls-1" d="M1318.5 4951.41l-3.39-3.41a1.779 1.779 0 0 0-2.5.05l-1.71 1.71c-.11-.06-.22-.12-.34-.18a16.216 16.216 0 0 1-7.1-7.12q-.09-.18-.18-.33l1.15-1.15.56-.57a1.791 1.791 0 0 0 .05-2.51l-3.4-3.4a1.769 1.769 0 0 0-2.5.04l-.95.97.02.03a5.57 5.57 0 0 0-.79 1.39 5.89 5.89 0 0 0-.35 1.42c-.45 3.72 1.25 7.13 5.86 11.76 6.38 6.39 11.51 5.9 11.74 5.88a5.52 5.52 0 0 0 1.41-.36 5.247 5.247 0 0 0 1.39-.78l.02.02.97-.96a1.769 1.769 0 0 0 .04-2.5z" transform="translate(-1297 -4934)"/></symbol><symbol id="icon-play" viewBox="0 0 12 20"><path id="Polygon_1" data-name="Polygon 1" class="cls-1" d="M838.011 2140l-12.006 10v-19.99z" transform="translate(-826 -2130)"/></symbol><symbol id="temp-icon-left-arrow" viewBox="0 0 31.494 31.494"><path d="M10.273 5.01a1.117 1.117 0 0 1 1.587 1.57l-8.047 8.047h26.554c.62 0 1.127.492 1.127 1.11 0 .62-.508 1.128-1.127 1.128H3.813l8.047 8.032c.43.444.43 1.16 0 1.587a1.112 1.112 0 0 1-1.587 0L.32 16.532a1.12 1.12 0 0 1 0-1.57l9.953-9.953z"/></symbol><symbol id="temp-icon-right-arrow" viewBox="0 0 31.49 31.49"><path d="M21.205 5.007a1.117 1.117 0 0 0-1.587 1.57l8.047 8.048H1.11c-.618 0-1.11.493-1.11 1.112 0 .62.492 1.127 1.11 1.127h26.555l-8.047 8.032c-.43.444-.43 1.16 0 1.587.444.444 1.16.444 1.587 0l9.952-9.952a1.092 1.092 0 0 0 0-1.57l-9.952-9.95z"/></symbol></svg>